<?xml version="1.0" encoding="utf-8"?>
<!-- Generator: Adobe Illustrator 17.0.0, SVG Export Plug-In . SVG Version: 6.00 Build 0)  -->
<!DOCTYPE svg PUBLIC "-//W3C//DTD SVG 1.1//EN" "http://www.w3.org/Graphics/SVG/1.1/DTD/svg11.dtd">
<svg version="1.1" id="Capa_1" xmlns="http://www.w3.org/2000/svg" xmlns:xlink="http://www.w3.org/1999/xlink" x="0px" y="0px"
	 width="151.595px" height="161.412px" viewBox="0 0 151.595 161.412" enable-background="new 0 0 151.595 161.412"
	 xml:space="preserve">
<g>
	<path d="M136.43,104.938c0,0.9,0,1.606,0,2.311c0,4.162-0.025,8.323,0.017,12.485c0.01,1.012-0.263,1.387-1.342,1.386
		c-29.72-0.026-59.439,0.002-89.159-0.035c-9.03-0.011-15.866-7.452-15.561-16.737c0.081-2.476,0.657-4.814,1.797-7.017
		c3.242-6.266,6.462-12.544,9.728-18.798c0.409-0.783,0.452-1.418,0.087-2.236C33.234,56.668,24.49,37.03,15.774,17.38
		c-0.422-0.952-0.944-1.289-1.983-1.274c-4.119,0.059-8.239-0.01-12.358,0.046C0.33,16.166-0.014,15.838,0,14.721
		c0.058-4.455,0.054-8.912,0.003-13.367c-0.012-1.067,0.356-1.356,1.379-1.351C8.78,0.036,16.178,0.038,23.577,0
		c0.947-0.005,1.422,0.319,1.79,1.174c1.895,4.395,3.91,8.739,5.738,13.161c0.572,1.384,1.276,1.831,2.769,1.829
		c35.983-0.045,71.967-0.035,107.95-0.035c0.462,0,0.926,0.021,1.387-0.003c6.694-0.344,10.23,6.732,7.404,12.113
		c-1.991,3.792-3.935,7.61-5.905,11.414c-6.97,13.463-13.926,26.933-20.92,40.384c-3.025,5.817-7.769,8.78-14.43,8.759
		c-17.949-0.057-35.899-0.008-53.849-0.045c-1.206-0.003-1.876,0.326-2.427,1.446c-1.759,3.58-3.654,7.093-5.484,10.638
		c-0.268,0.52-0.539,1.056-0.688,1.617c-0.339,1.275,0.471,2.366,1.789,2.471c0.46,0.037,0.924,0.014,1.387,0.014
		c28.164,0,56.329,0,84.493,0C135.125,104.938,135.667,104.938,136.43,104.938z"/>
	<path d="M136.688,145.229c-0.268,7.74-5.152,14.255-12.414,15.83c-5.896,1.278-10.779-0.772-14.51-5.421
		c-5.461-6.805-4.536-17.011,1.971-22.802c7.722-6.872,19.822-3.658,23.503,6.314C135.954,141.091,136.216,143.198,136.688,145.229z
		"/>
	<path d="M30.186,145.38c0.265-8.082,5.42-14.669,13.109-15.987c5.894-1.011,10.643,1.341,14.158,6.048
		c5.328,7.133,3.884,17.411-3.104,22.929c-7.766,6.132-19.347,2.597-22.773-7.024C30.896,149.434,30.638,147.372,30.186,145.38z"/>
</g>
</svg>
