<?xml version="1.0" encoding="utf-8"?>
<!-- Generator: Adobe Illustrator 17.0.0, SVG Export Plug-In . SVG Version: 6.00 Build 0)  -->
<!DOCTYPE svg PUBLIC "-//W3C//DTD SVG 1.1//EN" "http://www.w3.org/Graphics/SVG/1.1/DTD/svg11.dtd">
<svg version="1.1" id="Capa_1" xmlns="http://www.w3.org/2000/svg" xmlns:xlink="http://www.w3.org/1999/xlink" x="0px" y="0px"
	 width="173.75px" height="167.25px" viewBox="0 0 173.75 167.25" enable-background="new 0 0 173.75 167.25" xml:space="preserve">
<g>
	<g id="XMLID_1_">
		<g>
			<path fill="#FC3232" d="M134.96,82.3c5.21-7.39,6.01-15.37,2.71-23.73c-2.32-5.87-4.75-11.71-7.25-17.51
				c-0.54-1.24-0.49-1.92,0.63-2.69c1.91-1.29,3.74-2.71,5.61-4.09c12.58,20.75,9.48,52.89-13.53,71.66
				c-25.92,21.15-61.7,14.78-79.85-7.3c-21.46-26.12-15.65-60.51,5.48-79.33c23.34-20.78,55.58-17.72,73.71-1.88
				c-1.87,1.77-3.71,3.51-5.69,5.37c-4.86-4.12-10.18-7.13-16.09-9.06c-7.66-2.5-15.47-4.03-23.56-3.68
				c-6.99,0.31-12.98,2.82-17.58,8.2C53.22,25.65,46.7,32.91,40.74,40.6c-5.7,7.38-7.05,15.71-3.85,24.77
				c3.74,10.54,7.62,20.98,14.24,30.13c8.68,12.02,20.17,18.66,35.28,18.09c5.06-0.19,10.15-0.53,15.16-1.25
				c2-0.29,4.16-1.42,5.68-2.79c7.6-6.85,15.06-13.85,22.46-20.93C131.68,86.74,133.39,84.53,134.96,82.3z"/>
			<path fill="#FC3232" d="M128.31,50c-5.89,0.54-11.79,1.07-17.68,1.6c-0.08-0.3-0.16-0.61-0.24-0.92c1.4-0.43,2.79-1.18,4.21-1.23
				c4.39-0.15,8.79-0.03,13.19-0.01C127.95,49.44,128.11,49.52,128.31,50z"/>
			<path fill="#FFFFFF" d="M123.21,72.75c-7.52-5.9-15.59-7.48-24.04-2.95c-8.38,4.5-11.46,12.06-10.81,21.25
				c-3.67,0.67-4.12,0.4-4.05-2.96c0.22-10.03,4.7-17.65,13.65-22.16c8.79-4.42,17.4-3.5,25.47,2.15c0.34,0.23,0.67,0.5,0.98,0.77
				c0.18,0.17,0.32,0.38,0.61,0.73C124.49,70.52,123.92,71.5,123.21,72.75z"/>
			<path fill="#FFFFFF" d="M121.7,73.78c0.11,0.1,0.15,0.29,0.33,0.69c-0.42,0.58-0.8,1.11-1.19,1.65c-0.25,0.33-0.5,0.66-0.88,1.16
				c-5.61-4.64-11.68-6.06-18.13-2.66c-6.52,3.43-8.56,9.34-7.87,16.3c-3.85,0.93-4.19,0.73-4.12-2.9
				c0.13-7.88,3.71-13.79,10.74-17.22c7.05-3.45,13.89-2.56,20.19,2.15C121.1,73.2,121.41,73.48,121.7,73.78z"/>
			<path fill="#FFFFFF" d="M118.73,78.92c-0.84,0.69-1.71,1.41-2.39,1.97c-2.16-0.89-4.06-2.1-6.1-2.43
				c-5.75-0.94-10.69,3.44-10.85,9.3c-0.02,0.5,0.22,1.25-0.02,1.46c-0.73,0.63-1.6,1.24-2.51,1.46c-0.36,0.08-1.31-0.85-1.42-1.42
				c-0.96-5.26,2.58-11.31,7.93-13.75C108.63,73.11,114.91,74.36,118.73,78.92z"/>
			<path fill="#FFFFFF" d="M114.51,82.49c-4.07,3.3-8.31,5.81-13.32,7.03c-0.73-3.94,0.91-7.24,4.23-8.87
				C108.45,79.16,111.95,79.78,114.51,82.49z"/>
			<path fill="#FC3232" d="M84.78,45.51c0,0.17,0,0.35,0.01,0.53c-13.5,0-27,0-40.79,0c0.05-0.71,0.09-1.52,0.17-2.72
				C57.79,44.06,71.29,44.78,84.78,45.51z"/>
			<path fill="#FFFFFF" d="M125.53,62.73c1.48,0.9,1.66,1.77,1.36,2.7c-0.22,0.7-0.72,1.43-1.14,2.23
				c-9.24-6.59-19.05-8.12-29.15-2.73c-10.13,5.4-14.24,14.44-13.8,25.66c-3,0.06-3.82-0.06-3.97-1.72c-0.04-0.45-0.03-1.01,0-1.72
				c0.48-11.63,5.89-20.42,16.07-25.84C105.21,55.83,115.55,56.61,125.53,62.73z"/>
			<path fill="#FFFFFF" d="M82.94,69.58c-0.93,1.27-0.95,3.34-3.64,2.62c-0.45-0.12-0.88-0.23-1.3-0.34
				c-8.35-2.06-11.99-1.13-19.97,4.32c-0.72-0.89-1.46-1.81-2.17-2.69c4.58-5.56,14.91-7.95,22.42-5.99
				C80.02,67.95,81.61,68.64,82.94,69.58z"/>
			<path fill="#FFFFFF" d="M80.22,74.42c-0.45,1.06-0.86,2.04-1.36,3.23c-2.3-0.79-4.53-1.24-6.71-1.24
				c-3.67-0.01-7.18,1.22-10.55,4.17c-0.75-0.98-1.43-1.87-2.13-2.78c2.33-4.2,11.97-6.91,18.23-4.69
				C78.63,73.43,79.48,73.87,80.22,74.42z"/>
			<path fill="#FFFFFF" d="M66.94,83.33c-0.85,0.47-2.6-0.71-3.87-1.46c2.77-2.61,5.69-4.13,9.05-4.13c0.86,0,1.75,0.1,2.68,0.31
				c3.68,0.82,3.97,1.28,2.52,5.07c-1.19-0.54-2.35-0.91-3.49-1.08C71.51,81.66,69.26,82.05,66.94,83.33z"/>
			<path fill="#FFFFFF" d="M67.43,85.3c2.12-1.57,4.3-2.28,6.2-1.97c0.87,0.14,1.68,0.51,2.39,1.1c1.12,0.93,1.31,2.98,1.93,4.53
				c-0.3,0.26-0.61,0.52-0.91,0.78C73.99,88.32,70.93,86.91,67.43,85.3z"/>
			<path fill="#FC3232" d="M126.89,65.43c0.3-0.93,0.12-1.8-1.36-2.7c-9.98-6.12-20.32-6.9-30.63-1.42
				c-10.18,5.42-15.59,14.21-16.07,25.84c-0.03,0.71-0.04,1.27,0,1.72l-0.88,0.09c-0.62-1.55-0.81-3.6-1.93-4.53
				c-0.71-0.59-1.52-0.96-2.39-1.1l0.2-1.29c1.14,0.17,2.3,0.54,3.49,1.08c1.45-3.79,1.16-4.25-2.52-5.07
				c-0.93-0.21-1.82-0.31-2.68-0.31l0.03-1.33c2.18,0,4.41,0.45,6.71,1.24c0.5-1.19,0.91-2.17,1.36-3.23
				c-0.74-0.55-1.59-0.99-2.52-1.31l0.3-1.25c0.42,0.11,0.85,0.22,1.3,0.34c2.69,0.72,2.71-1.35,3.64-2.62
				c-1.33-0.94-2.92-1.63-4.66-2.08l0.36-1.37c0.97,0.25,1.95,0.57,2.93,0.95c2.57,0.99,3.81,0.28,4.95-2.03
				c-0.6-0.36-1.12-0.74-1.7-1c-3.78-1.67-7.5-2.6-11.16-2.81l0.07-1.42c2.2,0.12,4.44,0.48,6.72,1.07c1.6,0.42,2.45-0.08,3.49-1.06
				c2.35-2.22,4.7-4.44,7.05-6.67c11.32-10.69,22.66-21.38,34-32.06c0.77-0.73,1.58-1.42,2.59-2.32c0.88,1.24,1.62,2.29,2.54,3.59
				c-15.07,13.26-30.02,26.42-44.96,39.58c0.11,0.29,0.22,0.58,0.33,0.87c0.87-0.28,1.9-0.35,2.57-0.88
				c6.7-5.23,13.33-10.53,19.98-15.81c8.79-7,17.59-13.99,26.39-20.99c3.07-2.45,3.06-2.46,6.14,0.7
				c-14.05,10.48-28.08,20.94-42.11,31.4c0.07,0.21,0.14,0.43,0.21,0.64c10.51-3.29,20.32-1.49,29.68,4.71
				c-0.22,1.03-0.47,2.05-0.75,3.04L126.89,65.43z"/>
			<path fill="#FC3232" d="M101.19,89.52c5.01-1.22,9.25-3.73,13.32-7.03c-2.56-2.71-6.06-3.33-9.09-1.84
				C102.1,82.28,100.46,85.58,101.19,89.52z M116.34,80.89c0.68-0.56,1.55-1.28,2.39-1.97c-3.82-4.56-10.1-5.81-15.36-3.41
				c-5.35,2.44-8.89,8.49-7.93,13.75c0.11,0.57,1.06,1.5,1.42,1.42c0.91-0.22,1.78-0.83,2.51-1.46c0.24-0.21,0-0.96,0.02-1.46
				c0.16-5.86,5.1-10.24,10.85-9.3C112.28,78.79,114.18,80,116.34,80.89z M99.17,69.8c8.45-4.53,16.52-2.95,24.04,2.95
				c0.71-1.25,1.28-2.23,1.81-3.17c-0.29-0.35-0.43-0.56-0.61-0.73c-0.31-0.27-0.64-0.54-0.98-0.77
				c-8.07-5.65-16.68-6.57-25.47-2.15c-8.95,4.51-13.43,12.13-13.65,22.16c-0.07,3.36,0.38,3.63,4.05,2.96
				C87.71,81.86,90.79,74.3,99.17,69.8z M127.6,65.63c-3.81,13.84-12.78,24.2-27.49,29.34c-28.79,10.06-58.57-12.84-56.58-43.26
				c0.09-1.36,0.21-2.35,2.05-2.34c14.91,0.07,29.82,0.05,44.74,0.06c0.15,0,0.3,0.09,0.77,0.24c-0.51,0.71-1.06,1.34-1.63,1.87
				c-1.73,1.6-3.76,2.42-6.37,2.59c-10.3,0.67-20.58,1.68-30.86,2.58c-0.73,0.06-1.46,0.21-2.71,0.41c0.84,3.19,1.63,6.18,2.53,9.57
				c0.98-0.6,1.6-0.95,2.18-1.33c6.12-4.08,12.63-5.94,19.5-5.54l-0.07,1.42c-6.19-0.35-12.22,1.37-18.09,5.1
				c-2.91,1.85-2.89,2.03-0.59,5.22c0.8-0.54,1.46-1.01,2.14-1.47c6.77-4.55,13.98-6,21.52-3.96l-0.36,1.37
				c-7.51-1.96-17.84,0.43-22.42,5.99c0.71,0.88,1.45,1.8,2.17,2.69c7.98-5.45,11.62-6.38,19.97-4.32l-0.3,1.25
				c-6.26-2.22-15.9,0.49-18.23,4.69c0.7,0.91,1.38,1.8,2.13,2.78c3.37-2.95,6.88-4.18,10.55-4.17l-0.03,1.33
				c-3.36,0-6.28,1.52-9.05,4.13c1.27,0.75,3.02,1.93,3.87,1.46c2.32-1.28,4.57-1.67,6.89-1.29l-0.2,1.29
				c-1.9-0.31-4.08,0.4-6.2,1.97c3.5,1.61,6.56,3.02,9.61,4.44c0.3-0.26,0.61-0.52,0.91-0.78l0.88-0.09
				c0.15,1.66,0.97,1.78,3.97,1.72c-0.44-11.22,3.67-20.26,13.8-25.66c10.1-5.39,19.91-3.86,29.15,2.73
				c0.42-0.8,0.92-1.53,1.14-2.23L127.6,65.63z M122.03,74.47c-0.18-0.4-0.22-0.59-0.33-0.69c-0.29-0.3-0.6-0.58-0.93-0.83
				c-6.3-4.71-13.14-5.6-20.19-2.15c-7.03,3.43-10.61,9.34-10.74,17.22c-0.07,3.63,0.27,3.83,4.12,2.9
				c-0.69-6.96,1.35-12.87,7.87-16.3c6.45-3.4,12.52-1.98,18.13,2.66c0.38-0.5,0.63-0.83,0.88-1.16
				C121.23,75.58,121.61,75.05,122.03,74.47z"/>
			<path fill="#FFFFFF" d="M86.52,65.05c-1.14,2.31-2.38,3.02-4.95,2.03c-0.98-0.38-1.96-0.7-2.93-0.95
				c-7.54-2.04-14.75-0.59-21.52,3.96c-0.68,0.46-1.34,0.93-2.14,1.47c-2.3-3.19-2.32-3.37,0.59-5.22c5.87-3.73,11.9-5.45,18.09-5.1
				c3.66,0.21,7.38,1.14,11.16,2.81C85.4,64.31,85.92,64.69,86.52,65.05z"/>
		</g>
		<g>
		</g>
	</g>
</g>
<g>
	<path fill="#FC3232" d="M68.848,152.069h-5.469v4.844h5.059v1.475h-5.059v6.201h-1.641v-14.004h7.109V152.069z"/>
	<path fill="#FC3232" d="M77.149,164.823c-1.986,0-3.576-0.654-4.771-1.963s-1.792-3.011-1.792-5.107
		c0-2.252,0.609-4.049,1.826-5.391s2.875-2.012,4.971-2.012c1.934,0,3.491,0.651,4.673,1.953s1.772,3.004,1.772,5.107
		c0,2.285-0.605,4.092-1.816,5.42S79.18,164.823,77.149,164.823z M77.266,151.835c-1.471,0-2.666,0.531-3.584,1.592
		s-1.377,2.455-1.377,4.18s0.448,3.114,1.343,4.165s2.062,1.577,3.501,1.577c1.537,0,2.748-0.501,3.633-1.504
		s1.328-2.406,1.328-4.209c0-1.849-0.43-3.278-1.289-4.287S78.776,151.835,77.266,151.835z"/>
	<path fill="#FC3232" d="M92.227,164.823c-1.986,0-3.576-0.654-4.771-1.963s-1.792-3.011-1.792-5.107
		c0-2.252,0.609-4.049,1.826-5.391s2.875-2.012,4.971-2.012c1.934,0,3.491,0.651,4.673,1.953s1.772,3.004,1.772,5.107
		c0,2.285-0.605,4.092-1.816,5.42S94.258,164.823,92.227,164.823z M92.344,151.835c-1.471,0-2.666,0.531-3.584,1.592
		s-1.377,2.455-1.377,4.18s0.448,3.114,1.343,4.165s2.062,1.577,3.501,1.577c1.537,0,2.748-0.501,3.633-1.504
		s1.328-2.406,1.328-4.209c0-1.849-0.43-3.278-1.289-4.287S93.854,151.835,92.344,151.835z"/>
	<path fill="#FC3232" d="M101.661,164.589v-14.004h3.867c4.935,0,7.402,2.275,7.402,6.826c0,2.162-0.685,3.898-2.056,5.21
		s-3.205,1.968-5.503,1.968H101.661z M103.301,152.069v11.035h2.09c1.836,0,3.265-0.492,4.287-1.475s1.533-2.376,1.533-4.18
		c0-3.587-1.908-5.381-5.723-5.381H103.301z"/>
</g>
<g>
	<path d="M7.285,145.665l-1.71-19.92l7.14-0.45l-0.96,9.06l6.96-9.06l2.67,2.04l-6.33,6.63l7.41,11.25l-6.36,0.45l-4.05-8.55
		l-0.66,0.69l-0.81,7.56L7.285,145.665z"/>
	<path d="M26.965,145.695l-3-0.45l5.61-19.95l7.26,0.45l3.9,19.5l-2.7,0.45l-2.07-4.98l-7.98,0.66L26.965,145.695z M35.306,139.125
		l-4.17-10.05h-0.24l-2.37,9.99L35.306,139.125z"/>
	<path d="M54.805,145.695l-6.51-14.79h-0.18l-0.48,14.34l-3,0.15l1.41-19.65l7.26-0.3l3.03,14.28l3.51-14.43l7.26,0.45l0.9,19.5
		l-2.7,0.45l-4.29-15.96h-0.24l-3.27,15.51L54.805,145.695z"/>
	<path d="M74.305,145.695l-3-0.45l5.61-19.95l7.26,0.45l3.9,19.5l-2.7,0.45l-2.07-4.98l-7.98,0.66L74.305,145.695z M82.646,139.125
		l-4.17-10.05h-0.24l-2.37,9.99L82.646,139.125z"/>
	<path d="M94.225,145.665l-1.71-19.92l7.14-0.45l-0.96,9.06l6.96-9.06l2.67,2.04l-6.33,6.63l7.41,11.25l-6.36,0.45l-4.05-8.55
		l-0.66,0.69l-0.81,7.56L94.225,145.665z"/>
	<path d="M120.265,145.965c-1.08,0-2.085-0.221-3.015-0.66c-0.93-0.44-1.706-1.17-2.325-2.19c-0.62-1.02-1.03-2.38-1.23-4.08
		l-1.44-13.29l7.14-0.45c-0.24,2.9-0.44,5.271-0.6,7.11c-0.16,1.84-0.28,3.285-0.36,4.335c-0.081,1.05-0.14,1.81-0.18,2.28
		c-0.041,0.47-0.065,0.775-0.075,0.915c-0.01,0.14-0.015,0.23-0.015,0.27c0,1.24,0.295,2.12,0.885,2.64s1.385,0.78,2.385,0.78
		c0.56,0,1.115-0.109,1.665-0.33c0.55-0.22,1.009-0.63,1.38-1.23c0.37-0.6,0.565-1.45,0.585-2.55l0.27-13.92l3-0.15l-0.9,14.1
		c-0.081,1.34-0.35,2.436-0.81,3.285c-0.46,0.851-1.04,1.5-1.74,1.95c-0.7,0.45-1.45,0.76-2.25,0.93
		S121.045,145.965,120.265,145.965z"/>
	<path d="M148.345,146.385l-8.13-8.76c-0.14,0.041-0.285,0.07-0.435,0.09s-0.295,0.05-0.435,0.09l-0.81,7.56l-3,0.3l-1.71-19.32
		c0.62-0.2,1.435-0.405,2.445-0.615s2.105-0.385,3.285-0.525c1.18-0.14,2.35-0.21,3.51-0.21c1.12,0,2.215,0.11,3.285,0.33
		c1.07,0.22,2.025,0.59,2.865,1.11c0.36,1.08,0.54,2.07,0.54,2.97c0,1.34-0.4,2.53-1.2,3.57c-0.8,1.04-1.85,1.93-3.15,2.67
		l5.04,9.57L148.345,146.385z M139.555,135.885c1.42-0.64,2.51-1.49,3.27-2.55c0.76-1.06,1.14-2.1,1.14-3.12
		c0-0.64-0.155-1.25-0.465-1.83c-0.311-0.58-0.785-1.06-1.425-1.44c-0.26,0-0.525,0.025-0.795,0.075
		c-0.27,0.05-0.545,0.125-0.825,0.225L139.555,135.885z"/>
	<path d="M155.845,145.695l-3-0.45l5.61-19.95l7.26,0.45l3.9,19.5l-2.7,0.45l-2.07-4.98l-7.98,0.66L155.845,145.695z
		 M164.186,139.125l-4.17-10.05h-0.24l-2.37,9.99L164.186,139.125z"/>
</g>
</svg>
